<?xml version="1.0" encoding="utf-8"?>
<!-- Generator: Adobe Illustrator 25.4.1, SVG Export Plug-In . SVG Version: 6.00 Build 0)  -->
<svg version="1.1" id="Capa_1" xmlns="http://www.w3.org/2000/svg" xmlns:xlink="http://www.w3.org/1999/xlink" x="0px" y="0px"
	 viewBox="0 0 1920 381" style="enable-background:new 0 0 1920 381;" xml:space="preserve">
<style type="text/css">
	.st0{fill:#14172B;}
	.st1{fill:#1B1D2E;}
	.st2{fill:#FFFFFF;}
</style>
<g>
	<path d="M1137.43,166.04l13.84-30.56h4.32l13.88,30.56h-4.58l-12.35-28.11h1.75l-12.35,28.11H1137.43z M1143.32,158.4l1.18-3.49
		h17.2l1.27,3.49H1143.32z"/>
</g>
<g>
	<path d="M1179.82,166.3c-1.92,0-3.75-0.26-5.48-0.79c-1.73-0.52-3.09-1.16-4.08-1.92l1.75-3.32c0.99,0.67,2.21,1.24,3.67,1.7
		c1.45,0.47,2.94,0.7,4.45,0.7c1.95,0,3.35-0.28,4.21-0.83c0.86-0.55,1.29-1.32,1.29-2.31c0-0.73-0.26-1.29-0.79-1.7
		c-0.52-0.41-1.22-0.71-2.07-0.92c-0.86-0.2-1.81-0.39-2.86-0.55c-1.05-0.16-2.1-0.36-3.14-0.61c-1.05-0.25-2.01-0.6-2.88-1.05
		c-0.87-0.45-1.57-1.08-2.1-1.88c-0.52-0.8-0.79-1.87-0.79-3.21c0-1.4,0.39-2.62,1.18-3.67c0.79-1.05,1.9-1.86,3.34-2.42
		s3.15-0.85,5.13-0.85c1.51,0,3.05,0.18,4.6,0.55c1.56,0.36,2.83,0.88,3.82,1.55l-1.79,3.32c-1.05-0.7-2.14-1.18-3.27-1.44
		c-1.14-0.26-2.27-0.39-3.41-0.39c-1.83,0-3.2,0.3-4.1,0.89c-0.9,0.6-1.35,1.36-1.35,2.29c0,0.79,0.27,1.39,0.81,1.81
		c0.54,0.42,1.24,0.75,2.1,0.98c0.86,0.23,1.81,0.43,2.86,0.59c1.05,0.16,2.09,0.36,3.14,0.61s2,0.59,2.86,1.03s1.56,1.05,2.1,1.83
		c0.54,0.79,0.81,1.83,0.81,3.14c0,1.4-0.41,2.61-1.22,3.62c-0.82,1.02-1.96,1.81-3.45,2.38
		C1183.66,166.01,1181.88,166.3,1179.82,166.3z"/>
	<path d="M1204.96,166.3c-2.33,0-4.39-0.51-6.2-1.53s-3.23-2.42-4.28-4.21c-1.05-1.79-1.57-3.82-1.57-6.09
		c0-2.3,0.52-4.34,1.57-6.11c1.05-1.77,2.47-3.17,4.28-4.17s3.87-1.51,6.2-1.51c2.3,0,4.36,0.5,6.18,1.51
		c1.82,1,3.24,2.39,4.28,4.15c1.03,1.76,1.55,3.81,1.55,6.13c0,2.3-0.52,4.34-1.55,6.11c-1.03,1.78-2.46,3.17-4.28,4.19
		C1209.32,165.79,1207.26,166.3,1204.96,166.3z M1204.96,162.63c1.48,0,2.82-0.33,3.99-1c1.18-0.67,2.1-1.62,2.77-2.86
		c0.67-1.24,1-2.67,1-4.3c0-1.66-0.33-3.09-1-4.3c-0.67-1.21-1.59-2.15-2.77-2.82c-1.18-0.67-2.51-1-3.99-1s-2.81,0.33-3.97,1
		c-1.16,0.67-2.1,1.61-2.79,2.82c-0.7,1.21-1.05,2.64-1.05,4.3c0,1.63,0.35,3.06,1.05,4.3c0.7,1.24,1.63,2.19,2.79,2.86
		C1202.15,162.3,1203.48,162.63,1204.96,162.63z"/>
	<path d="M1232.86,166.3c-2.36,0-4.46-0.51-6.31-1.53s-3.3-2.42-4.34-4.19c-1.05-1.77-1.57-3.81-1.57-6.11
		c0-2.3,0.52-4.34,1.57-6.11c1.05-1.77,2.5-3.17,4.34-4.17s3.95-1.51,6.31-1.51c2.09,0,3.96,0.42,5.61,1.24
		c1.64,0.83,2.92,2.06,3.82,3.69l-3.19,2.05c-0.76-1.13-1.68-1.97-2.77-2.51c-1.09-0.54-2.26-0.81-3.51-0.81
		c-1.51,0-2.87,0.33-4.06,1c-1.19,0.67-2.14,1.61-2.84,2.82c-0.7,1.21-1.05,2.64-1.05,4.3c0,1.66,0.35,3.1,1.05,4.32
		c0.7,1.22,1.64,2.17,2.84,2.84c1.19,0.67,2.55,1,4.06,1c1.25,0,2.42-0.27,3.51-0.81c1.09-0.54,2.02-1.38,2.77-2.51l3.19,2.01
		c-0.9,1.6-2.18,2.83-3.82,3.69C1236.82,165.87,1234.95,166.3,1232.86,166.3z"/>
	<path d="M1249.79,138.45c-0.81,0-1.49-0.26-2.03-0.79c-0.54-0.52-0.81-1.16-0.81-1.92c0-0.79,0.27-1.44,0.81-1.96
		c0.54-0.52,1.21-0.79,2.03-0.79s1.49,0.25,2.03,0.76c0.54,0.51,0.81,1.14,0.81,1.9c0,0.79-0.26,1.45-0.79,1.99
		C1251.32,138.18,1250.64,138.45,1249.79,138.45z M1247.7,166.04V142.9h4.19v23.14H1247.7z"/>
</g>
<g>
	<path d="M1266.64,166.3c-1.72,0-3.22-0.29-4.52-0.87c-1.3-0.58-2.29-1.39-2.99-2.42c-0.7-1.03-1.05-2.2-1.05-3.51
		c0-1.25,0.3-2.39,0.89-3.41c0.6-1.02,1.57-1.83,2.92-2.44c1.35-0.61,3.18-0.92,5.48-0.92h7.33v3.01h-7.16
		c-2.1,0-3.51,0.35-4.23,1.05c-0.73,0.7-1.09,1.54-1.09,2.53c0,1.13,0.45,2.04,1.35,2.73s2.15,1.03,3.75,1.03
		c1.57,0,2.95-0.35,4.12-1.05c1.18-0.7,2.03-1.72,2.55-3.06l0.83,2.88c-0.55,1.37-1.53,2.45-2.92,3.25
		C1270.53,165.9,1268.77,166.3,1266.64,166.3z M1274.24,166.04v-4.89l-0.22-0.92v-8.34c0-1.77-0.52-3.15-1.55-4.12
		c-1.03-0.97-2.58-1.46-4.65-1.46c-1.37,0-2.71,0.23-4.02,0.68c-1.31,0.45-2.42,1.06-3.32,1.81l-1.75-3.14
		c1.19-0.96,2.63-1.7,4.3-2.21c1.67-0.51,3.43-0.76,5.26-0.76c3.17,0,5.62,0.77,7.33,2.31c1.72,1.54,2.58,3.9,2.58,7.07v13.97
		H1274.24z"/>
</g>
<g>
	<path d="M1296.2,166.3c-2.36,0-4.46-0.51-6.31-1.53s-3.3-2.42-4.34-4.19c-1.05-1.77-1.57-3.81-1.57-6.11c0-2.3,0.52-4.34,1.57-6.11
		c1.05-1.77,2.5-3.17,4.34-4.17s3.95-1.51,6.31-1.51c2.09,0,3.96,0.42,5.61,1.24c1.64,0.83,2.92,2.06,3.82,3.69l-3.19,2.05
		c-0.76-1.13-1.68-1.97-2.77-2.51c-1.09-0.54-2.26-0.81-3.51-0.81c-1.51,0-2.87,0.33-4.06,1c-1.19,0.67-2.14,1.61-2.84,2.82
		c-0.7,1.21-1.05,2.64-1.05,4.3c0,1.66,0.35,3.1,1.05,4.32c0.7,1.22,1.64,2.17,2.84,2.84c1.19,0.67,2.55,1,4.06,1
		c1.25,0,2.42-0.27,3.51-0.81c1.09-0.54,2.02-1.38,2.77-2.51l3.19,2.01c-0.9,1.6-2.18,2.83-3.82,3.69
		C1300.16,165.87,1298.29,166.3,1296.2,166.3z"/>
	<path d="M1313.13,138.45c-0.81,0-1.49-0.26-2.03-0.79c-0.54-0.52-0.81-1.16-0.81-1.92c0-0.79,0.27-1.44,0.81-1.96
		c0.54-0.52,1.21-0.79,2.03-0.79s1.49,0.25,2.03,0.76c0.54,0.51,0.81,1.14,0.81,1.9c0,0.79-0.26,1.45-0.79,1.99
		C1314.66,138.18,1313.98,138.45,1313.13,138.45z M1311.04,166.04V142.9h4.19v23.14H1311.04z"/>
	<path d="M1333.13,166.3c-2.33,0-4.39-0.51-6.2-1.53s-3.23-2.42-4.28-4.21c-1.05-1.79-1.57-3.82-1.57-6.09
		c0-2.3,0.52-4.34,1.57-6.11c1.05-1.77,2.47-3.17,4.28-4.17s3.87-1.51,6.2-1.51c2.3,0,4.36,0.5,6.18,1.51
		c1.82,1,3.24,2.39,4.28,4.15c1.03,1.76,1.55,3.81,1.55,6.13c0,2.3-0.52,4.34-1.55,6.11c-1.03,1.78-2.46,3.17-4.28,4.19
		C1337.48,165.79,1335.42,166.3,1333.13,166.3z M1333.13,162.63c1.48,0,2.82-0.33,3.99-1c1.18-0.67,2.1-1.62,2.77-2.86
		c0.67-1.24,1-2.67,1-4.3c0-1.66-0.33-3.09-1-4.3c-0.67-1.21-1.59-2.15-2.77-2.82c-1.18-0.67-2.51-1-3.99-1s-2.81,0.33-3.97,1
		c-1.16,0.67-2.1,1.61-2.79,2.82c-0.7,1.21-1.05,2.64-1.05,4.3c0,1.63,0.35,3.06,1.05,4.3c0.7,1.24,1.63,2.19,2.79,2.86
		C1330.32,162.3,1331.64,162.63,1333.13,162.63z M1329.81,139.54l5.94-5.67h5.33l-7.33,5.67H1329.81z"/>
	<path d="M1350.94,166.04V142.9h4.02v6.24l-0.65-1.66c0.76-1.51,1.92-2.69,3.49-3.54c1.57-0.84,3.4-1.27,5.5-1.27
		c1.89,0,3.56,0.36,5,1.09s2.57,1.83,3.38,3.32c0.81,1.48,1.22,3.36,1.22,5.63v13.31h-4.19V153.2c0-2.24-0.55-3.93-1.64-5.06
		c-1.09-1.13-2.63-1.7-4.61-1.7c-1.48,0-2.78,0.29-3.89,0.87c-1.11,0.58-1.96,1.44-2.55,2.58s-0.89,2.55-0.89,4.23v11.92H1350.94z"
		/>
</g>
<g>
	<path d="M1393.02,166.04v-30.56h11.92c2.68,0,4.96,0.42,6.85,1.27c1.89,0.84,3.35,2.07,4.37,3.67c1.02,1.6,1.53,3.51,1.53,5.72
		c0,2.21-0.51,4.11-1.53,5.7c-1.02,1.59-2.47,2.81-4.37,3.67c-1.89,0.86-4.18,1.29-6.85,1.29h-9.52l1.96-2.05v11.31H1393.02z
		 M1397.38,155.17l-1.96-2.18h9.39c2.79,0,4.91-0.6,6.35-1.79s2.16-2.88,2.16-5.06c0-2.18-0.72-3.87-2.16-5.06
		c-1.44-1.19-3.56-1.79-6.35-1.79h-9.39l1.96-2.18V155.17z"/>
</g>
<g>
	<path d="M1433.75,166.3c-2.47,0-4.65-0.51-6.53-1.53s-3.33-2.42-4.37-4.19c-1.03-1.77-1.55-3.81-1.55-6.11
		c0-2.3,0.5-4.34,1.51-6.11c1-1.77,2.39-3.17,4.15-4.17s3.75-1.51,5.96-1.51c2.24,0,4.22,0.5,5.94,1.48
		c1.72,0.99,3.06,2.38,4.04,4.17c0.97,1.79,1.46,3.88,1.46,6.26c0,0.17-0.01,0.38-0.02,0.61c-0.01,0.23-0.04,0.45-0.07,0.66h-19.69
		v-3.01h17.5l-1.7,1.05c0.03-1.48-0.28-2.81-0.92-3.97c-0.64-1.16-1.52-2.07-2.64-2.73c-1.12-0.66-2.42-0.98-3.91-0.98
		c-1.46,0-2.75,0.33-3.89,0.98c-1.13,0.65-2.02,1.57-2.66,2.75c-0.64,1.18-0.96,2.52-0.96,4.04v0.7c0,1.54,0.36,2.92,1.07,4.12
		c0.71,1.21,1.71,2.15,2.99,2.82c1.28,0.67,2.75,1,4.41,1c1.37,0,2.61-0.23,3.73-0.7c1.12-0.46,2.1-1.16,2.95-2.09l2.31,2.71
		c-1.05,1.22-2.35,2.15-3.91,2.79C1437.41,165.98,1435.67,166.3,1433.75,166.3z"/>
	<path d="M1450.16,166.04V142.9h4.02v6.29l-0.39-1.57c0.64-1.6,1.72-2.82,3.23-3.67c1.51-0.84,3.38-1.27,5.59-1.27v4.06
		c-0.17-0.03-0.34-0.04-0.5-0.04s-0.31,0-0.46,0c-2.24,0-4.02,0.67-5.33,2.01s-1.96,3.27-1.96,5.81v11.52H1450.16z"/>
	<path d="M1477.79,166.3c-1.98,0-3.72-0.36-5.22-1.09s-2.66-1.84-3.49-3.34c-0.83-1.5-1.24-3.38-1.24-5.65V142.9h4.19v12.83
		c0,2.27,0.54,3.97,1.64,5.11c1.09,1.13,2.63,1.7,4.61,1.7c1.46,0,2.72-0.3,3.8-0.89c1.08-0.6,1.91-1.47,2.49-2.62
		c0.58-1.15,0.87-2.54,0.87-4.17V142.9h4.19v23.14h-3.97v-6.24l0.66,1.66c-0.76,1.54-1.89,2.74-3.41,3.58
		C1481.39,165.88,1479.68,166.3,1477.79,166.3z"/>
	<path d="M1504.38,166.3c-1.72,0-3.22-0.29-4.52-0.87c-1.3-0.58-2.29-1.39-2.99-2.42c-0.7-1.03-1.05-2.2-1.05-3.51
		c0-1.25,0.3-2.39,0.89-3.41c0.6-1.02,1.57-1.83,2.92-2.44c1.35-0.61,3.18-0.92,5.48-0.92h7.33v3.01h-7.16
		c-2.1,0-3.51,0.35-4.23,1.05c-0.73,0.7-1.09,1.54-1.09,2.53c0,1.13,0.45,2.04,1.35,2.73s2.15,1.03,3.75,1.03
		c1.57,0,2.95-0.35,4.12-1.05c1.18-0.7,2.03-1.72,2.55-3.06l0.83,2.88c-0.55,1.37-1.53,2.45-2.92,3.25
		C1508.26,165.9,1506.5,166.3,1504.38,166.3z M1511.97,166.04v-4.89l-0.22-0.92v-8.34c0-1.77-0.52-3.15-1.55-4.12
		c-1.03-0.97-2.58-1.46-4.65-1.46c-1.37,0-2.71,0.23-4.02,0.68c-1.31,0.45-2.42,1.06-3.32,1.81l-1.75-3.14
		c1.19-0.96,2.63-1.7,4.3-2.21c1.67-0.51,3.43-0.76,5.26-0.76c3.17,0,5.62,0.77,7.33,2.31c1.72,1.54,2.58,3.9,2.58,7.07v13.97
		H1511.97z"/>
	<path d="M1523.71,166.04V142.9h4.02v6.24l-0.65-1.66c0.76-1.51,1.92-2.69,3.49-3.54c1.57-0.84,3.4-1.27,5.5-1.27
		c1.89,0,3.56,0.36,5,1.09s2.57,1.83,3.38,3.32c0.81,1.48,1.22,3.36,1.22,5.63v13.31h-4.19V153.2c0-2.24-0.55-3.93-1.64-5.06
		c-1.09-1.13-2.63-1.7-4.61-1.7c-1.48,0-2.78,0.29-3.89,0.87c-1.11,0.58-1.96,1.44-2.55,2.58s-0.89,2.55-0.89,4.23v11.92H1523.71z"
		/>
	<path d="M1560.21,166.3c-1.72,0-3.22-0.29-4.52-0.87c-1.3-0.58-2.29-1.39-2.99-2.42c-0.7-1.03-1.05-2.2-1.05-3.51
		c0-1.25,0.3-2.39,0.89-3.41c0.6-1.02,1.57-1.83,2.92-2.44c1.35-0.61,3.18-0.92,5.48-0.92h7.33v3.01h-7.16
		c-2.1,0-3.51,0.35-4.23,1.05c-0.73,0.7-1.09,1.54-1.09,2.53c0,1.13,0.45,2.04,1.35,2.73s2.15,1.03,3.75,1.03
		c1.57,0,2.95-0.35,4.12-1.05c1.18-0.7,2.03-1.72,2.55-3.06l0.83,2.88c-0.55,1.37-1.53,2.45-2.92,3.25
		C1564.09,165.9,1562.33,166.3,1560.21,166.3z M1567.8,166.04v-4.89l-0.22-0.92v-8.34c0-1.77-0.52-3.15-1.55-4.12
		c-1.03-0.97-2.58-1.46-4.65-1.46c-1.37,0-2.71,0.23-4.02,0.68c-1.31,0.45-2.42,1.06-3.32,1.81l-1.75-3.14
		c1.19-0.96,2.63-1.7,4.3-2.21c1.67-0.51,3.43-0.76,5.26-0.76c3.17,0,5.62,0.77,7.33,2.31c1.72,1.54,2.58,3.9,2.58,7.07v13.97
		H1567.8z"/>
</g>
<g>
	<path d="M1151.01,218.68c-2.24,0-4.24-0.49-6-1.48c-1.76-0.99-3.15-2.37-4.17-4.15c-1.02-1.78-1.53-3.84-1.53-6.2
		s0.51-4.42,1.53-6.18c1.02-1.76,2.41-3.14,4.17-4.12c1.76-0.99,3.76-1.48,6-1.48c1.95,0,3.71,0.44,5.28,1.31s2.83,2.18,3.78,3.93
		c0.95,1.75,1.42,3.93,1.42,6.55s-0.46,4.8-1.38,6.55c-0.92,1.75-2.16,3.06-3.73,3.95C1154.8,218.24,1153.01,218.68,1151.01,218.68z
		 M1151.36,215.01c1.46,0,2.77-0.33,3.95-1c1.18-0.67,2.11-1.62,2.79-2.86c0.68-1.24,1.03-2.67,1.03-4.3c0-1.66-0.34-3.09-1.03-4.3
		c-0.68-1.21-1.62-2.15-2.79-2.82c-1.18-0.67-2.5-1-3.95-1c-1.48,0-2.81,0.33-3.97,1c-1.16,0.67-2.1,1.61-2.79,2.82
		c-0.7,1.21-1.05,2.64-1.05,4.3c0,1.63,0.35,3.06,1.05,4.3c0.7,1.24,1.63,2.19,2.79,2.86
		C1148.55,214.68,1149.87,215.01,1151.36,215.01z M1159.26,218.42v-6.24l0.26-5.37l-0.44-5.37v-15.41h4.19v32.39H1159.26z"/>
	<path d="M1181.52,218.68c-2.47,0-4.65-0.51-6.53-1.53s-3.33-2.42-4.37-4.19c-1.03-1.77-1.55-3.81-1.55-6.11
		c0-2.3,0.5-4.34,1.51-6.11c1-1.77,2.39-3.17,4.15-4.17s3.75-1.51,5.96-1.51c2.24,0,4.22,0.5,5.94,1.48
		c1.72,0.99,3.06,2.38,4.04,4.17c0.97,1.79,1.46,3.88,1.46,6.26c0,0.17-0.01,0.38-0.02,0.61c-0.01,0.23-0.04,0.45-0.07,0.66h-19.69
		v-3.01h17.5l-1.7,1.05c0.03-1.48-0.28-2.81-0.92-3.97c-0.64-1.16-1.52-2.07-2.64-2.73c-1.12-0.66-2.42-0.98-3.91-0.98
		c-1.46,0-2.75,0.33-3.89,0.98c-1.13,0.65-2.02,1.57-2.66,2.75c-0.64,1.18-0.96,2.52-0.96,4.04v0.7c0,1.54,0.36,2.92,1.07,4.12
		c0.71,1.21,1.71,2.15,2.99,2.82c1.28,0.67,2.75,1,4.41,1c1.37,0,2.61-0.23,3.73-0.7c1.12-0.46,2.1-1.16,2.95-2.09l2.31,2.71
		c-1.05,1.22-2.35,2.15-3.91,2.79C1185.18,218.36,1183.44,218.68,1181.52,218.68z"/>
	<path d="M1224.08,218.77c-2.33,0-4.49-0.39-6.48-1.18c-1.99-0.79-3.72-1.88-5.17-3.3c-1.46-1.41-2.59-3.06-3.41-4.96
		c-0.81-1.89-1.22-3.96-1.22-6.2s0.41-4.31,1.22-6.2c0.81-1.89,1.95-3.54,3.41-4.95c1.46-1.41,3.17-2.51,5.15-3.3
		c1.98-0.79,4.15-1.18,6.5-1.18c2.33,0,4.47,0.39,6.44,1.16c1.96,0.77,3.68,1.86,5.15,3.27c1.47,1.41,2.6,3.06,3.41,4.96
		c0.8,1.89,1.2,3.97,1.2,6.24c0,2.27-0.4,4.35-1.2,6.24c-0.8,1.89-1.94,3.54-3.41,4.95c-1.47,1.41-3.19,2.5-5.15,3.27
		C1228.56,218.38,1226.41,218.77,1224.08,218.77z M1224.08,214.88c1.69,0,3.25-0.29,4.69-0.87c1.44-0.58,2.69-1.4,3.75-2.47
		c1.06-1.06,1.89-2.31,2.49-3.73c0.6-1.43,0.89-2.98,0.89-4.67s-0.3-3.25-0.89-4.67c-0.6-1.43-1.43-2.67-2.49-3.73
		c-1.06-1.06-2.31-1.88-3.75-2.47c-1.44-0.58-3-0.87-4.69-0.87c-1.72,0-3.3,0.29-4.74,0.87c-1.44,0.58-2.7,1.4-3.78,2.47
		c-1.08,1.06-1.91,2.31-2.51,3.73s-0.89,2.98-0.89,4.67s0.3,3.25,0.89,4.67s1.43,2.67,2.51,3.73c1.08,1.06,2.34,1.88,3.78,2.47
		C1220.79,214.59,1222.36,214.88,1224.08,214.88z"/>
	<path d="M1255.9,218.68c-2.24,0-4.24-0.49-6-1.48c-1.76-0.99-3.15-2.37-4.17-4.15c-1.02-1.78-1.53-3.84-1.53-6.2
		s0.51-4.42,1.53-6.18c1.02-1.76,2.41-3.14,4.17-4.12c1.76-0.99,3.76-1.48,6-1.48c1.95,0,3.71,0.44,5.28,1.31s2.83,2.18,3.78,3.93
		c0.95,1.75,1.42,3.93,1.42,6.55s-0.46,4.8-1.38,6.55c-0.92,1.75-2.16,3.06-3.73,3.95C1259.7,218.24,1257.91,218.68,1255.9,218.68z
		 M1256.25,215.01c1.46,0,2.77-0.33,3.95-1c1.18-0.67,2.11-1.62,2.79-2.86c0.68-1.24,1.03-2.67,1.03-4.3c0-1.66-0.34-3.09-1.03-4.3
		c-0.68-1.21-1.62-2.15-2.79-2.82c-1.18-0.67-2.5-1-3.95-1c-1.48,0-2.81,0.33-3.97,1c-1.16,0.67-2.1,1.61-2.79,2.82
		c-0.7,1.21-1.05,2.64-1.05,4.3c0,1.63,0.35,3.06,1.05,4.3c0.7,1.24,1.63,2.19,2.79,2.86
		C1253.44,214.68,1254.77,215.01,1256.25,215.01z M1264.15,218.42v-6.24l0.26-5.37l-0.44-5.37v-15.41h4.19v32.39H1264.15z"/>
	<path d="M1286.02,218.68c-2.33,0-4.39-0.51-6.2-1.53s-3.23-2.42-4.28-4.21c-1.05-1.79-1.57-3.82-1.57-6.09
		c0-2.3,0.52-4.34,1.57-6.11c1.05-1.77,2.47-3.17,4.28-4.17s3.87-1.51,6.2-1.51c2.3,0,4.36,0.5,6.18,1.51
		c1.82,1,3.24,2.39,4.28,4.15c1.03,1.76,1.55,3.81,1.55,6.13c0,2.3-0.52,4.34-1.55,6.11c-1.03,1.78-2.46,3.17-4.28,4.19
		C1290.38,218.17,1288.32,218.68,1286.02,218.68z M1286.02,215.01c1.48,0,2.82-0.33,3.99-1c1.18-0.67,2.1-1.62,2.77-2.86
		c0.67-1.24,1-2.67,1-4.3c0-1.66-0.33-3.09-1-4.3c-0.67-1.21-1.59-2.15-2.77-2.82c-1.18-0.67-2.51-1-3.99-1s-2.81,0.33-3.97,1
		c-1.16,0.67-2.1,1.61-2.79,2.82c-0.7,1.21-1.05,2.64-1.05,4.3c0,1.63,0.35,3.06,1.05,4.3c0.7,1.24,1.63,2.19,2.79,2.86
		C1283.21,214.68,1284.54,215.01,1286.02,215.01z"/>
	<path d="M1303.83,218.42v-23.14h4.02v6.24l-0.65-1.66c0.76-1.51,1.92-2.69,3.49-3.54c1.57-0.84,3.4-1.27,5.5-1.27
		c1.89,0,3.56,0.36,5,1.09s2.57,1.83,3.38,3.32c0.81,1.48,1.22,3.36,1.22,5.63v13.31h-4.19v-12.83c0-2.24-0.55-3.93-1.64-5.06
		c-1.09-1.13-2.63-1.7-4.61-1.7c-1.48,0-2.78,0.29-3.89,0.87c-1.11,0.58-1.96,1.44-2.55,2.58s-0.89,2.55-0.89,4.23v11.92H1303.83z"
		/>
</g>
<g>
	<path d="M1330.25,198.73v-3.45H1345v3.45H1330.25z M1341.51,218.68c-2.33,0-4.13-0.62-5.41-1.88c-1.28-1.25-1.92-3.04-1.92-5.37
		v-21.22h4.19v21.04c0,1.25,0.31,2.21,0.94,2.88c0.62,0.67,1.52,1,2.68,1c1.31,0,2.4-0.36,3.27-1.09l1.31,3.01
		c-0.64,0.55-1.41,0.96-2.29,1.22C1343.39,218.55,1342.47,218.68,1341.51,218.68z"/>
</g>
<g>
	<path d="M1360.8,218.68c-2.33,0-4.39-0.51-6.2-1.53s-3.23-2.42-4.28-4.21c-1.05-1.79-1.57-3.82-1.57-6.09
		c0-2.3,0.52-4.34,1.57-6.11c1.05-1.77,2.47-3.17,4.28-4.17s3.87-1.51,6.2-1.51c2.3,0,4.36,0.5,6.18,1.51
		c1.82,1,3.24,2.39,4.28,4.15c1.03,1.76,1.55,3.81,1.55,6.13c0,2.3-0.52,4.34-1.55,6.11c-1.03,1.78-2.46,3.17-4.28,4.19
		C1365.16,218.17,1363.1,218.68,1360.8,218.68z M1360.8,215.01c1.48,0,2.82-0.33,3.99-1c1.18-0.67,2.1-1.62,2.77-2.86
		c0.67-1.24,1-2.67,1-4.3c0-1.66-0.33-3.09-1-4.3c-0.67-1.21-1.59-2.15-2.77-2.82c-1.18-0.67-2.51-1-3.99-1s-2.81,0.33-3.97,1
		c-1.16,0.67-2.1,1.61-2.79,2.82c-0.7,1.21-1.05,2.64-1.05,4.3c0,1.63,0.35,3.06,1.05,4.3c0.7,1.24,1.63,2.19,2.79,2.86
		C1357.99,214.68,1359.32,215.01,1360.8,215.01z"/>
	<path d="M1378.61,218.42v-32.39h4.19v32.39H1378.61z"/>
	<path d="M1400.7,218.68c-2.33,0-4.39-0.51-6.2-1.53s-3.23-2.42-4.28-4.21c-1.05-1.79-1.57-3.82-1.57-6.09
		c0-2.3,0.52-4.34,1.57-6.11c1.05-1.77,2.47-3.17,4.28-4.17s3.87-1.51,6.2-1.51c2.3,0,4.36,0.5,6.18,1.51
		c1.82,1,3.24,2.39,4.28,4.15c1.03,1.76,1.55,3.81,1.55,6.13c0,2.3-0.52,4.34-1.55,6.11c-1.03,1.78-2.46,3.17-4.28,4.19
		C1405.06,218.17,1403,218.68,1400.7,218.68z M1400.7,215.01c1.48,0,2.82-0.33,3.99-1c1.18-0.67,2.1-1.62,2.77-2.86
		c0.67-1.24,1-2.67,1-4.3c0-1.66-0.33-3.09-1-4.3c-0.67-1.21-1.59-2.15-2.77-2.82c-1.18-0.67-2.51-1-3.99-1s-2.81,0.33-3.97,1
		c-1.16,0.67-2.1,1.61-2.79,2.82c-0.7,1.21-1.05,2.64-1.05,4.3c0,1.63,0.35,3.06,1.05,4.3c0.7,1.24,1.63,2.19,2.79,2.86
		C1397.89,214.68,1399.22,215.01,1400.7,215.01z"/>
	<path d="M1428.11,217.46c-2.24,0-4.24-0.47-6-1.42c-1.76-0.95-3.16-2.26-4.19-3.95c-1.03-1.69-1.55-3.64-1.55-5.85
		c0-2.24,0.52-4.2,1.55-5.87c1.03-1.67,2.43-2.97,4.19-3.91c1.76-0.93,3.76-1.4,6-1.4c1.98,0,3.78,0.4,5.41,1.2
		c1.63,0.8,2.93,2.03,3.91,3.69c0.97,1.66,1.46,3.75,1.46,6.29c0,2.5-0.49,4.58-1.46,6.24c-0.98,1.66-2.28,2.9-3.91,3.73
		C1431.9,217.04,1430.09,217.46,1428.11,217.46z M1428.64,227.15c-2.12,0-4.18-0.3-6.18-0.89c-1.99-0.6-3.62-1.45-4.87-2.55
		l2.01-3.23c1.08,0.93,2.4,1.67,3.97,2.2s3.22,0.81,4.93,0.81c2.74,0,4.74-0.64,6.02-1.92c1.28-1.28,1.92-3.23,1.92-5.85v-4.89
		l0.44-4.58l-0.22-4.63v-6.33h3.97v19.99c0,4.07-1.02,7.07-3.06,8.99S1432.57,227.15,1428.64,227.15z M1428.59,213.79
		c1.54,0,2.91-0.32,4.1-0.96c1.19-0.64,2.13-1.53,2.82-2.66c0.68-1.14,1.03-2.45,1.03-3.93c0-1.48-0.34-2.79-1.03-3.93
		c-0.68-1.13-1.62-2.01-2.82-2.64c-1.19-0.62-2.56-0.94-4.1-0.94c-1.54,0-2.92,0.31-4.13,0.94c-1.21,0.63-2.15,1.51-2.84,2.64
		c-0.68,1.14-1.03,2.45-1.03,3.93c0,1.48,0.34,2.79,1.03,3.93c0.68,1.13,1.63,2.02,2.84,2.66
		C1425.68,213.47,1427.05,213.79,1428.59,213.79z"/>
	<path d="M1447.45,191.92l5.94-5.67h5.33l-7.33,5.67H1447.45z M1448.63,218.42v-23.14h4.19v23.14H1448.63z"/>
	<path d="M1467.58,218.68c-1.72,0-3.22-0.29-4.52-0.87c-1.3-0.58-2.29-1.39-2.99-2.42c-0.7-1.03-1.05-2.2-1.05-3.51
		c0-1.25,0.3-2.39,0.89-3.41c0.6-1.02,1.57-1.83,2.92-2.44c1.35-0.61,3.18-0.92,5.48-0.92h7.33v3.01h-7.16
		c-2.1,0-3.51,0.35-4.23,1.05c-0.73,0.7-1.09,1.54-1.09,2.53c0,1.13,0.45,2.04,1.35,2.73s2.15,1.03,3.75,1.03
		c1.57,0,2.95-0.35,4.12-1.05c1.18-0.7,2.03-1.72,2.55-3.06l0.83,2.88c-0.55,1.37-1.53,2.45-2.92,3.25
		C1471.46,218.28,1469.7,218.68,1467.58,218.68z M1475.17,218.42v-4.89l-0.22-0.92v-8.34c0-1.77-0.52-3.15-1.55-4.12
		c-1.03-0.97-2.58-1.46-4.65-1.46c-1.37,0-2.71,0.23-4.02,0.68c-1.31,0.45-2.42,1.06-3.32,1.81l-1.75-3.14
		c1.19-0.96,2.63-1.7,4.3-2.21c1.67-0.51,3.43-0.76,5.26-0.76c3.17,0,5.62,0.77,7.33,2.31c1.72,1.54,2.58,3.9,2.58,7.07v13.97
		H1475.17z"/>
</g>
<g>
	<path d="M1499.27,218.42v-30.56h21.56v3.8h-17.2v26.76H1499.27z M1503.2,206.07v-3.75h15.76v3.75H1503.2z"/>
</g>
<g>
	<path d="M1535.37,218.68c-1.98,0-3.72-0.36-5.22-1.09s-2.66-1.84-3.49-3.34c-0.83-1.5-1.24-3.38-1.24-5.65v-13.31h4.19v12.83
		c0,2.27,0.54,3.97,1.64,5.11c1.09,1.13,2.63,1.7,4.61,1.7c1.46,0,2.72-0.3,3.8-0.89c1.08-0.6,1.91-1.47,2.49-2.62
		c0.58-1.15,0.87-2.54,0.87-4.17v-11.96h4.19v23.14h-3.97v-6.24l0.66,1.66c-0.76,1.54-1.89,2.74-3.41,3.58
		C1538.96,218.26,1537.26,218.68,1535.37,218.68z"/>
</g>
<g>
	<path d="M1555.19,218.42v-23.14h4.02v6.24l-0.65-1.66c0.76-1.51,1.92-2.69,3.49-3.54c1.57-0.84,3.4-1.27,5.5-1.27
		c1.89,0,3.56,0.36,5,1.09s2.57,1.83,3.38,3.32c0.81,1.48,1.22,3.36,1.22,5.63v13.31h-4.19v-12.83c0-2.24-0.55-3.93-1.64-5.06
		c-1.09-1.13-2.63-1.7-4.61-1.7c-1.48,0-2.78,0.29-3.89,0.87c-1.11,0.58-1.96,1.44-2.55,2.58s-0.89,2.55-0.89,4.23v11.92H1555.19z"
		/>
</g>
<g>
	<path d="M1595.13,218.68c-2.36,0-4.46-0.51-6.31-1.53s-3.3-2.42-4.34-4.19c-1.05-1.77-1.57-3.81-1.57-6.11
		c0-2.3,0.52-4.34,1.57-6.11c1.05-1.77,2.5-3.17,4.34-4.17s3.95-1.51,6.31-1.51c2.09,0,3.96,0.42,5.61,1.24
		c1.64,0.83,2.92,2.06,3.82,3.69l-3.19,2.05c-0.76-1.13-1.68-1.97-2.77-2.51c-1.09-0.54-2.26-0.81-3.51-0.81
		c-1.51,0-2.87,0.33-4.06,1c-1.19,0.67-2.14,1.61-2.84,2.82c-0.7,1.21-1.05,2.64-1.05,4.3c0,1.66,0.35,3.1,1.05,4.32
		c0.7,1.22,1.64,2.17,2.84,2.84c1.19,0.67,2.55,1,4.06,1c1.25,0,2.42-0.27,3.51-0.81c1.09-0.54,2.02-1.38,2.77-2.51l3.19,2.01
		c-0.9,1.6-2.18,2.83-3.82,3.69C1599.1,218.25,1597.23,218.68,1595.13,218.68z"/>
	<path d="M1612.07,190.83c-0.81,0-1.49-0.26-2.03-0.79c-0.54-0.52-0.81-1.16-0.81-1.92c0-0.79,0.27-1.44,0.81-1.96
		c0.54-0.52,1.21-0.79,2.03-0.79s1.49,0.25,2.03,0.76c0.54,0.51,0.81,1.14,0.81,1.9c0,0.79-0.26,1.45-0.79,1.99
		C1613.6,190.56,1612.91,190.83,1612.07,190.83z M1609.97,218.42v-23.14h4.19v23.14H1609.97z"/>
	<path d="M1632.06,218.68c-2.33,0-4.39-0.51-6.2-1.53s-3.23-2.42-4.28-4.21c-1.05-1.79-1.57-3.82-1.57-6.09
		c0-2.3,0.52-4.34,1.57-6.11c1.05-1.77,2.47-3.17,4.28-4.17s3.87-1.51,6.2-1.51c2.3,0,4.36,0.5,6.18,1.51
		c1.82,1,3.24,2.39,4.28,4.15c1.03,1.76,1.55,3.81,1.55,6.13c0,2.3-0.52,4.34-1.55,6.11c-1.03,1.78-2.46,3.17-4.28,4.19
		C1636.42,218.17,1634.36,218.68,1632.06,218.68z M1632.06,215.01c1.48,0,2.82-0.33,3.99-1c1.18-0.67,2.1-1.62,2.77-2.86
		c0.67-1.24,1-2.67,1-4.3c0-1.66-0.33-3.09-1-4.3c-0.67-1.21-1.59-2.15-2.77-2.82c-1.18-0.67-2.51-1-3.99-1s-2.81,0.33-3.97,1
		c-1.16,0.67-2.1,1.61-2.79,2.82c-0.7,1.21-1.05,2.64-1.05,4.3c0,1.63,0.35,3.06,1.05,4.3c0.7,1.24,1.63,2.19,2.79,2.86
		C1629.25,214.68,1630.58,215.01,1632.06,215.01z"/>
	<path d="M1649.87,218.42v-23.14h4.02v6.24l-0.65-1.66c0.76-1.51,1.92-2.69,3.49-3.54c1.57-0.84,3.4-1.27,5.5-1.27
		c1.89,0,3.56,0.36,5,1.09s2.57,1.83,3.38,3.32c0.81,1.48,1.22,3.36,1.22,5.63v13.31h-4.19v-12.83c0-2.24-0.55-3.93-1.64-5.06
		c-1.09-1.13-2.63-1.7-4.61-1.7c-1.48,0-2.78,0.29-3.89,0.87c-1.11,0.58-1.96,1.44-2.55,2.58s-0.89,2.55-0.89,4.23v11.92H1649.87z"
		/>
	<path d="M1686.37,218.68c-1.72,0-3.22-0.29-4.52-0.87c-1.3-0.58-2.29-1.39-2.99-2.42c-0.7-1.03-1.05-2.2-1.05-3.51
		c0-1.25,0.3-2.39,0.89-3.41c0.6-1.02,1.57-1.83,2.92-2.44c1.35-0.61,3.18-0.92,5.48-0.92h7.33v3.01h-7.16
		c-2.1,0-3.51,0.35-4.23,1.05c-0.73,0.7-1.09,1.54-1.09,2.53c0,1.13,0.45,2.04,1.35,2.73s2.15,1.03,3.75,1.03
		c1.57,0,2.95-0.35,4.12-1.05c1.18-0.7,2.03-1.72,2.55-3.06l0.83,2.88c-0.55,1.37-1.53,2.45-2.92,3.25
		C1690.25,218.28,1688.49,218.68,1686.37,218.68z M1693.96,218.42v-4.89l-0.22-0.92v-8.34c0-1.77-0.52-3.15-1.55-4.12
		c-1.03-0.97-2.58-1.46-4.65-1.46c-1.37,0-2.71,0.23-4.02,0.68c-1.31,0.45-2.42,1.06-3.32,1.81l-1.75-3.14
		c1.19-0.96,2.63-1.7,4.3-2.21c1.67-0.51,3.43-0.76,5.26-0.76c3.17,0,5.62,0.77,7.33,2.31c1.72,1.54,2.58,3.9,2.58,7.07v13.97
		H1693.96z"/>
	<path d="M1705.7,218.42v-32.39h4.19v32.39H1705.7z"/>
</g>
<g>
	<path d="M1151.75,271.06c-2.47,0-4.65-0.51-6.53-1.53s-3.33-2.42-4.37-4.19c-1.03-1.77-1.55-3.81-1.55-6.11
		c0-2.3,0.5-4.34,1.51-6.11c1-1.77,2.39-3.17,4.15-4.17s3.75-1.51,5.96-1.51c2.24,0,4.22,0.5,5.94,1.48
		c1.72,0.99,3.06,2.38,4.04,4.17c0.97,1.79,1.46,3.88,1.46,6.26c0,0.17-0.01,0.38-0.02,0.61c-0.01,0.23-0.04,0.45-0.07,0.66h-19.69
		v-3.01h17.5l-1.7,1.05c0.03-1.48-0.28-2.81-0.92-3.97c-0.64-1.16-1.52-2.07-2.64-2.73c-1.12-0.66-2.42-0.98-3.91-0.98
		c-1.46,0-2.75,0.33-3.89,0.98c-1.13,0.65-2.02,1.57-2.66,2.75c-0.64,1.18-0.96,2.52-0.96,4.04v0.7c0,1.54,0.36,2.92,1.07,4.12
		c0.71,1.21,1.71,2.15,2.99,2.82c1.28,0.67,2.75,1,4.41,1c1.37,0,2.61-0.23,3.73-0.7c1.12-0.46,2.1-1.16,2.95-2.09l2.31,2.71
		c-1.05,1.22-2.35,2.15-3.91,2.79C1155.41,270.74,1153.67,271.06,1151.75,271.06z"/>
	<path d="M1180.52,270.8v-30.56h4.37v30.56H1180.52z"/>
	<path d="M1193.44,270.8v-23.14h4.02v6.24l-0.65-1.66c0.76-1.51,1.92-2.69,3.49-3.54c1.57-0.84,3.4-1.27,5.5-1.27
		c1.89,0,3.56,0.36,5,1.09s2.57,1.83,3.38,3.32c0.81,1.48,1.22,3.36,1.22,5.63v13.31h-4.19v-12.83c0-2.24-0.55-3.93-1.64-5.06
		c-1.09-1.13-2.63-1.7-4.61-1.7c-1.48,0-2.78,0.29-3.89,0.87c-1.11,0.58-1.96,1.44-2.55,2.58s-0.89,2.55-0.89,4.23v11.92H1193.44z"
		/>
</g>
<g>
	<path d="M1219.85,251.11v-3.45h14.75v3.45H1219.85z M1231.11,271.06c-2.33,0-4.13-0.62-5.41-1.88c-1.28-1.25-1.92-3.04-1.92-5.37
		V242.6h4.19v21.04c0,1.25,0.31,2.21,0.94,2.88c0.62,0.67,1.52,1,2.68,1c1.31,0,2.4-0.36,3.27-1.09l1.31,3.01
		c-0.64,0.55-1.41,0.96-2.29,1.22C1232.99,270.93,1232.07,271.06,1231.11,271.06z"/>
</g>
<g>
	<path d="M1250.8,271.06c-2.47,0-4.65-0.51-6.53-1.53s-3.33-2.42-4.37-4.19c-1.03-1.77-1.55-3.81-1.55-6.11
		c0-2.3,0.5-4.34,1.51-6.11c1-1.77,2.39-3.17,4.15-4.17s3.75-1.51,5.96-1.51c2.24,0,4.22,0.5,5.94,1.48
		c1.72,0.99,3.06,2.38,4.04,4.17c0.97,1.79,1.46,3.88,1.46,6.26c0,0.17-0.01,0.38-0.02,0.61c-0.01,0.23-0.04,0.45-0.07,0.66h-19.69
		v-3.01h17.5l-1.7,1.05c0.03-1.48-0.28-2.81-0.92-3.97c-0.64-1.16-1.52-2.07-2.64-2.73c-1.12-0.66-2.42-0.98-3.91-0.98
		c-1.46,0-2.75,0.33-3.89,0.98c-1.13,0.65-2.02,1.57-2.66,2.75c-0.64,1.18-0.96,2.52-0.96,4.04v0.7c0,1.54,0.36,2.92,1.07,4.12
		c0.71,1.21,1.71,2.15,2.99,2.82c1.28,0.67,2.75,1,4.41,1c1.37,0,2.61-0.23,3.73-0.7c1.12-0.46,2.1-1.16,2.95-2.09l2.31,2.71
		c-1.05,1.22-2.35,2.15-3.91,2.79C1254.46,270.74,1252.72,271.06,1250.8,271.06z"/>
	<path d="M1276.81,269.84c-2.24,0-4.24-0.47-6-1.42c-1.76-0.95-3.16-2.26-4.19-3.95c-1.03-1.69-1.55-3.64-1.55-5.85
		c0-2.24,0.52-4.2,1.55-5.87c1.03-1.67,2.43-2.97,4.19-3.91c1.76-0.93,3.76-1.4,6-1.4c1.98,0,3.78,0.4,5.41,1.2
		c1.63,0.8,2.93,2.03,3.91,3.69c0.97,1.66,1.46,3.75,1.46,6.29c0,2.5-0.49,4.58-1.46,6.24c-0.98,1.66-2.28,2.9-3.91,3.73
		C1280.6,269.43,1278.79,269.84,1276.81,269.84z M1277.34,279.53c-2.12,0-4.18-0.3-6.18-0.89c-1.99-0.6-3.62-1.45-4.87-2.55
		l2.01-3.23c1.08,0.93,2.4,1.67,3.97,2.2s3.22,0.81,4.93,0.81c2.74,0,4.74-0.64,6.02-1.92c1.28-1.28,1.92-3.23,1.92-5.85v-4.89
		l0.44-4.58l-0.22-4.63v-6.33h3.97v19.99c0,4.07-1.02,7.07-3.06,8.99S1281.27,279.53,1277.34,279.53z M1277.29,266.17
		c1.54,0,2.91-0.32,4.1-0.96c1.19-0.64,2.13-1.53,2.82-2.66c0.68-1.14,1.03-2.45,1.03-3.93c0-1.48-0.34-2.79-1.03-3.93
		c-0.68-1.13-1.62-2.01-2.82-2.64c-1.19-0.62-2.56-0.94-4.1-0.94c-1.54,0-2.92,0.31-4.13,0.94c-1.21,0.63-2.15,1.51-2.84,2.64
		c-0.68,1.14-1.03,2.45-1.03,3.93c0,1.48,0.34,2.79,1.03,3.93c0.68,1.13,1.63,2.02,2.84,2.66
		C1274.38,265.85,1275.75,266.17,1277.29,266.17z"/>
</g>
<g>
	<path d="M1297.33,270.8v-23.14h4.02v6.29l-0.39-1.57c0.64-1.6,1.72-2.82,3.23-3.67c1.51-0.84,3.38-1.27,5.59-1.27v4.06
		c-0.17-0.03-0.34-0.04-0.5-0.04s-0.31,0-0.46,0c-2.24,0-4.02,0.67-5.33,2.01s-1.96,3.27-1.96,5.81v11.52H1297.33z"/>
</g>
<g>
	<path d="M1321.69,271.06c-1.72,0-3.22-0.29-4.52-0.87c-1.3-0.58-2.29-1.39-2.99-2.42c-0.7-1.03-1.05-2.2-1.05-3.51
		c0-1.25,0.3-2.39,0.89-3.41c0.6-1.02,1.57-1.83,2.92-2.44c1.35-0.61,3.18-0.92,5.48-0.92h7.33v3.01h-7.16
		c-2.1,0-3.51,0.35-4.23,1.05c-0.73,0.7-1.09,1.54-1.09,2.53c0,1.13,0.45,2.04,1.35,2.73s2.15,1.03,3.75,1.03
		c1.57,0,2.95-0.35,4.12-1.05c1.18-0.7,2.03-1.72,2.55-3.06l0.83,2.88c-0.55,1.37-1.53,2.45-2.92,3.25
		C1325.58,270.66,1323.81,271.06,1321.69,271.06z M1329.29,270.8v-4.89l-0.22-0.92v-8.34c0-1.77-0.52-3.15-1.55-4.12
		c-1.03-0.97-2.58-1.46-4.65-1.46c-1.37,0-2.71,0.23-4.02,0.68c-1.31,0.45-2.42,1.06-3.32,1.81l-1.75-3.14
		c1.19-0.96,2.63-1.7,4.3-2.21c1.67-0.51,3.43-0.76,5.26-0.76c3.17,0,5.62,0.77,7.33,2.31c1.72,1.54,2.58,3.9,2.58,7.07v13.97
		H1329.29z"/>
	<path d="M1337.71,251.11v-3.45h14.75v3.45H1337.71z M1348.97,271.06c-2.33,0-4.13-0.62-5.41-1.88c-1.28-1.25-1.92-3.04-1.92-5.37
		V242.6h4.19v21.04c0,1.25,0.31,2.21,0.94,2.88c0.62,0.67,1.52,1,2.68,1c1.31,0,2.4-0.36,3.27-1.09l1.31,3.01
		c-0.64,0.55-1.41,0.96-2.29,1.22C1350.86,270.93,1349.93,271.06,1348.97,271.06z"/>
	<path d="M1361.19,243.21c-0.81,0-1.49-0.26-2.03-0.79c-0.54-0.52-0.81-1.16-0.81-1.92c0-0.79,0.27-1.44,0.81-1.96
		c0.54-0.52,1.21-0.79,2.03-0.79s1.49,0.25,2.03,0.76c0.54,0.51,0.81,1.14,0.81,1.9c0,0.79-0.26,1.45-0.79,1.99
		C1362.72,242.94,1362.04,243.21,1361.19,243.21z M1359.1,270.8v-23.14h4.19v23.14H1359.1z"/>
</g>
<g>
	<path d="M1377.35,270.8l-10.13-23.14h4.37l8.99,20.95h-2.1l9.17-20.95h4.1l-10.13,23.14H1377.35z"/>
</g>
<g>
	<path d="M1401.75,271.06c-1.72,0-3.22-0.29-4.52-0.87c-1.3-0.58-2.29-1.39-2.99-2.42c-0.7-1.03-1.05-2.2-1.05-3.51
		c0-1.25,0.3-2.39,0.89-3.41c0.6-1.02,1.57-1.83,2.92-2.44c1.35-0.61,3.18-0.92,5.48-0.92h7.33v3.01h-7.16
		c-2.1,0-3.51,0.35-4.23,1.05c-0.73,0.7-1.09,1.54-1.09,2.53c0,1.13,0.45,2.04,1.35,2.73s2.15,1.03,3.75,1.03
		c1.57,0,2.95-0.35,4.12-1.05c1.18-0.7,2.03-1.72,2.55-3.06l0.83,2.88c-0.55,1.37-1.53,2.45-2.92,3.25
		C1405.63,270.66,1403.87,271.06,1401.75,271.06z M1409.34,270.8v-4.89l-0.22-0.92v-8.34c0-1.77-0.52-3.15-1.55-4.12
		c-1.03-0.97-2.58-1.46-4.65-1.46c-1.37,0-2.71,0.23-4.02,0.68c-1.31,0.45-2.42,1.06-3.32,1.81l-1.75-3.14
		c1.19-0.96,2.63-1.7,4.3-2.21c1.67-0.51,3.43-0.76,5.26-0.76c3.17,0,5.62,0.77,7.33,2.31c1.72,1.54,2.58,3.9,2.58,7.07v13.97
		H1409.34z"/>
</g>
<g>
	<path class="st0" d="M483.02,275.69h-18.84l5.2-12.13l56.32-129.96l2.38-5.2h11.26l2.38,5.2l56.32,129.96l5.2,12.13h-18.84
		l-2.38-5.2l-48.3-111.55l-48.3,111.55L483.02,275.69z"/>
	<path class="st0" d="M624.68,202.04l0.22-64.76v-8.66h8.66l55.02-0.22c10.97,0,20.72,3.47,29.24,10.4
		c10.11,8.23,15.16,18.56,15.16,30.97c0,9.68-3.39,18.34-10.18,25.99c-8.81,9.96-20.22,14.95-34.22,14.95H642v56.32v8.66h-17.33
		v-8.66V210.7V202.04z M688.58,193.38c5.34,0,10.32-1.3,14.95-3.9c8.09-4.62,12.13-11.19,12.13-19.71c0-4.91-1.59-9.46-4.77-13.65
		c-5.34-6.93-12.78-10.4-22.31-10.4H642v47.87L688.58,193.38z"/>
	<path class="st0" d="M774.78,148.75c12.56-13.57,27.51-20.36,44.84-20.36c17.33,0.15,32.35,7.01,45.05,20.58
		c13.28,14.44,19.93,32.13,19.93,53.07c0,20.94-6.71,38.7-20.14,53.29c-12.56,13.58-27.51,20.36-44.84,20.36
		c-17.33-0.14-32.35-7-45.05-20.58c-13.29-14.44-19.93-32.13-19.93-53.07C754.64,181.1,761.35,163.34,774.78,148.75z M784.53,240.16
		c9.38,12.13,21.08,18.2,35.09,18.2c12.13-0.14,22.74-4.98,31.84-14.51c10.54-11.26,15.81-25.2,15.81-41.81
		c0-14.44-4.19-27.15-12.56-38.12c-9.39-12.13-21.09-18.2-35.09-18.2c-12.13,0.15-22.74,4.98-31.84,14.51
		c-10.54,11.26-15.81,25.2-15.81,41.8C771.97,216.48,776.15,229.19,784.53,240.16z"/>
	<path class="st0" d="M1010.23,128.39v17.33h-8.66h-64.98v47.65h44.62h8.66v17.33h-8.66h-44.62v56.32v8.66h-17.33v-8.66V210.7
		v-17.33v-56.32v-8.66h8.66h73.65H1010.23z"/>
	<path class="st0" d="M1033.19,128.39h17.33v8.66v129.96v8.66h-17.33v-8.66V137.06V128.39z"/>
</g>
<path d="M1098.73,312.03h-9.45V99.28h9.45V312.03z M1091.56,309.75h4.89V101.56h-4.89V309.75z"/>
<path class="st1" d="M348.33,96.07c-1.45,17.1-15.79,30.52-33.26,30.52c-17.47,0-31.81-13.42-33.26-30.52
	c-43.92,14.06-75.72,55.22-75.72,103.81c0,60.19,48.79,108.98,108.98,108.98c60.19,0,110.55-50.99,110.55-111.18
	C425.62,149.09,392.25,110.13,348.33,96.07"/>
<path class="st2" d="M241.59,161.99c-8.49,2.04-9.98,3.69-11.82,13.09c-1.84-9.4-3.34-11.05-11.82-13.09
	c8.49-2.04,9.98-3.69,11.82-13.09C231.61,158.3,233.1,159.96,241.59,161.99"/>
<path class="st2" d="M402.07,199.54c-5.06,1.22-5.95,2.2-7.05,7.81c-1.1-5.6-1.99-6.59-7.05-7.81c5.06-1.22,5.95-2.2,7.05-7.81
	C396.11,197.34,397,198.33,402.07,199.54"/>
<path class="st2" d="M243.56,199.54c-5.06,1.22-5.95,2.2-7.05,7.81c-1.1-5.6-1.99-6.59-7.05-7.81c5.06-1.22,5.95-2.2,7.05-7.81
	C237.6,197.34,238.5,198.33,243.56,199.54"/>
<path class="st2" d="M235.59,144.18c6.76-15.39,22.74-26.64,37.55-33.15c1.41-0.62,0.19-2.69-1.21-2.08
	c-15.12,6.65-31.51,18.3-38.41,34.02C232.9,144.37,234.97,145.59,235.59,144.18"/>
<path class="st2" d="M397.45,143.08c-6.91-15.71-23.29-27.37-38.41-34.02c-1.4-0.62-2.63,1.45-1.21,2.08
	c14.81,6.51,30.79,17.77,37.55,33.15C395.99,145.71,398.07,144.48,397.45,143.08"/>
<path class="st2" d="M406.21,237.44c8.71-18.86,9.72-41.97,5.43-61.98c-0.32-1.51-2.64-0.87-2.32,0.64
	c4.14,19.32,3.23,41.89-5.19,60.13C403.49,237.62,405.56,238.84,406.21,237.44"/>
<path class="st1" d="M315.88,59.76l5.46,16.79c0.07,0.22,0.27,0.37,0.5,0.37h17.65c0.51,0,0.73,0.66,0.31,0.96l-14.28,10.38
	c-0.19,0.14-0.26,0.38-0.19,0.59l5.46,16.79c0.16,0.49-0.4,0.89-0.82,0.59l-14.28-10.38c-0.19-0.14-0.44-0.14-0.62,0l-14.28,10.38
	c-0.42,0.3-0.98-0.1-0.82-0.59l5.46-16.79c0.07-0.22-0.01-0.46-0.19-0.59l-14.28-10.38c-0.42-0.3-0.2-0.96,0.31-0.96h17.65
	c0.23,0,0.43-0.15,0.5-0.37l5.46-16.79C315.03,59.27,315.72,59.27,315.88,59.76"/>
<path class="st2" d="M226.15,240.56c-8.42-18.24-9.34-40.81-5.19-60.13c0.32-1.51-1.99-2.15-2.32-0.64
	c-4.29,20.02-3.27,43.12,5.43,61.98C224.72,243.17,226.79,241.95,226.15,240.56"/>
<path class="st2" d="M308.67,229.69c-1.27-0.89,0.72-7.98,0.72-7.98c0.49-1.87,0.97-4.38,2.1-7.18c0.11-0.25,0.28-0.62,0.5-1.06
	c0,0,0.57-1.16,1.22-2.29c10.62-18.41,28.14-20.23,28.14-20.23c0.64-0.07,1.17-0.1,1.51-0.12c0,0,11.7-0.9,18.67,3.15
	c0.84,0.49,1.76-0.29,1.15-1.06c-0.01-0.01-0.01-0.01-0.02-0.02c-3.02-3.84-4.06-7.82-2.1-12.64c1.49-3.68,0.5-7.57-0.85-11.16
	c-5.16-13.79-15.33-22.4-28.99-26.88c-22.52-7.37-47.18,0.28-61.31,19.28c-9.12,12.27-12.11,26.84-10.08,39.99
	c0.25,1.66,0.59,3.29,1,4.9v0.02c0.3,2.23,1.2,4.68,2.47,7.21c0,0.01,0.01,0.01,0.01,0.02c2.46,4.89,6.28,10.01,9.77,14.2
	c0,0,0,0,0.01,0.01c0.24,0.39,7.93,12.56,9.13,17.18l0.07,0.29c0,0.01,0,0.01,0,0.02c3.98,17.16,3.91,34.74,3.91,39.01
	c0,3.91-2.74,2.68-3.77,2.08c-0.24-0.14-0.39-0.4-0.38-0.69c0.22-14.74-1.75-26.55-4.18-35.39c-3.84-12.33-10.19-21.53-11.9-23.88
	c-0.28-0.38-0.44-0.59-0.44-0.59c-0.22-0.29-0.43-0.58-0.64-0.88c-7.66-10.81-10.75-24.84-9.59-37.67
	c2.15-23.69,14.7-40.3,36.66-48.78c21.43-8.29,47.09-4.07,62.73,12.16c6.36,6.6,10.71,14.29,11.91,23.56
	c0.41,3.21,0.15,6.35-0.95,9.37c-0.62,1.7-0.43,3.08,0.59,4.58c3.66,5.39,7.26,10.82,10.81,16.28c0.83,1.27,1.59,2.66,2.04,4.1
	c1.37,4.31-1.13,7.84-5.64,8.09c-1.21,0.07-2.42,0.04-3.8,0.02c-0.55-0.01-0.93,0.53-0.75,1.05c0.95,2.67,1.86,5.18,2.7,7.72
	c0.71,2.17,1.35,4.38-0.2,6.49c-0.29,0.4-0.43,0.77-0.14,1.22c1.95,2.97,0.42,5.37-1.38,7.61c-1.19,1.48-1.39,2.8-0.81,4.67
	c2.55,8.17-0.05,14.49-6.81,17.18c-1.46,0.58-2.97,0.73-4.52,0.73c-4.43-0.01-8.87-0.02-13.3,0.03c-3.09,0.04-4.25,1.18-4.29,4.3
	c-0.05,4.17,0.01,8.34,0.02,12.52c0,0.64,0.02,1.27-0.01,1.9c-0.07,1.64-0.77,2.91-2.5,3.02c-1.86,0.11-2.54-1.31-2.56-2.86
	c-0.1-5.44-0.3-10.89-0.04-16.32c0.22-4.73,3.41-7.49,8.22-7.65c4.98-0.16,9.97,0.02,14.92-0.34c5.25-0.37,8.12-4.57,6.48-9.58
	c-1.4-4.27-1.8-8.1,1.76-11.5c0.61-0.58,0.88-1.51,0.63-2.26c-0.33-0.99-1.38-0.6-2.15-0.62c-1.27-0.05-2.54-0.05-3.8,0
	c-3.16,0.13-5.92-0.34-8.88-2.11c-8.8-5.29-20.07,0.17-21.91,10.27c-0.78,4.28-1.31,8.6-1.89,12.91c-0.24,1.76-0.71,3.47-2.8,3.24
	c-1.96-0.21-2.47-1.83-2.23-3.69c0.6-4.49,1.09-8.98,1.76-13.46c0.47-3.17,1.6-6.1,3.59-8.64c0,0,0,0,0.01-0.01
	c0.12-0.15,0.24-0.3,0.36-0.44c0.04-0.05,0.09-0.09,0.15-0.14c0,0,0,0,0-0.01c0.16-0.18,0.35-0.39,0.56-0.62
	c0.11-0.11,0.22-0.23,0.33-0.35c0.23-0.24,0.48-0.49,0.74-0.74c0,0,0-0.01,0-0.01c0.37-0.36,0.77-0.73,1.16-1.05
	c0.35-0.27,0.69-0.53,1.04-0.77c6.71-4.63,15.04-5.11,22.23-0.83c3.52,2.1,7.17,0.92,10.76,1.21c1.23,0.1,0.8-1.02,0.62-1.6
	c-0.67-2.15-1.47-4.26-2.19-6.39c-0.32-0.94-0.65-1.89-0.8-2.85c-0.83-5.02,0.38-6.35,5.44-6.47c1.63-0.04,3.91,0.96,4.74-0.84
	c0.84-1.82-0.85-3.44-1.99-4.9c-0.02-0.03-0.04-0.05-0.06-0.09c-1.04-1.76-2.12-3.5-3.47-5.03c-0.49-0.56-1.41-0.18-1.37,0.57
	c0.13,2.36-0.57,4.47-2.11,6.43c-3.63,4.61-8.29,5.6-13.84,4.3c-4.62-1.08-9.39-1.19-13.99,0c-8.56,2.19-12.66,8.56-13.66,16.73
	c-1.6,13.13-2.58,26.33-3.77,39.51c-0.4,4.42-0.68,8.85-0.95,13.29c-0.12,1.82-0.29,3.77-2.63,3.62c-2.4-0.16-2.58-2.16-2.43-4.09
	c0.58-7.68,1.13-15.37,1.79-23.04c0.81-9.48,1.64-18.96,2.57-28.42c0.99-10.11,5.43-17.96,15.19-21.95
	c5.27-2.15,10.84-1.63,16.35-1.19c1.8,0.15,3.58,0.54,5.37,0.76c2.09,0.26,3.94-0.3,5.45-1.83c2.07-2.11,2.11-3.65,0-5.81
	c-0.24-0.25-0.48-0.49-0.73-0.74h0c-3.3-2.55-8.92-3.27-12.61-3.45c-0.03,0-0.05,0-0.08,0c-0.31,0.01-0.63,0.01-0.95-0.01
	c-3.67-0.21-11.26,1.43-18.28,7.12c-2.24,1.82-4.43,4.09-6.39,6.7c-3.28,4.37-5.93,9.69-7.11,15.43c0,0-0.78,5.3-1.83,5.64
	C309.78,230.9,308.67,229.69,308.67,229.69"/>
<path class="st2" d="M359.86,227.14c-2.11,0.75-2.8-0.79-3.45-2.48c-1.67-4.3-5.36-5.91-9.52-6.4c-0.85-0.1-1.67-0.16-2.45-0.18
	c-0.13,0-0.25,0-0.38,0c-0.13,0-0.25,0-0.37,0c-0.11,0-0.23,0-0.34,0.01c-0.03,0-0.06,0-0.09,0c-0.1,0-0.2,0.01-0.31,0.01
	c-0.1,0-0.2,0.01-0.3,0.02c-0.04,0-0.08,0.01-0.13,0.01c-0.07,0.01-0.14,0.01-0.2,0.02c-0.05,0-0.1,0.01-0.15,0.01
	c-0.08,0.01-0.15,0.01-0.22,0.02c-0.02,0-0.05,0-0.07,0.01c-0.1,0.01-0.2,0.02-0.3,0.04c-0.01,0-0.02,0-0.04,0
	c-0.11,0.01-0.21,0.03-0.32,0.05c0,0-0.01,0-0.01,0c-0.11,0.02-0.22,0.03-0.33,0.05c-0.11,0.02-0.22,0.04-0.33,0.06
	c-0.13,0.03-0.26,0.05-0.39,0.08c-0.19,0.04-0.37,0.09-0.56,0.14c-0.01,0-0.02,0-0.02,0.01c-0.1,0.03-0.19,0.05-0.29,0.08
	c-0.01,0-0.01,0-0.02,0.01c-0.09,0.03-0.18,0.05-0.26,0.08c-0.02,0-0.04,0.01-0.05,0.02c-0.08,0.03-0.16,0.05-0.23,0.08
	c-0.03,0.01-0.06,0.02-0.08,0.03c-0.07,0.03-0.14,0.05-0.22,0.08c-0.02,0-0.03,0.01-0.04,0.02c-0.07,0.03-0.15,0.06-0.22,0.09
	c-0.03,0.01-0.05,0.02-0.08,0.03c-0.36,0.15-0.71,0.33-1.05,0.52c-0.02,0.01-0.04,0.02-0.06,0.04c-0.08,0.04-0.16,0.09-0.24,0.14
	c-0.08,0.05-0.17,0.1-0.25,0.15c-0.01,0.01-0.02,0.01-0.03,0.02c-0.08,0.05-0.16,0.1-0.24,0.16c-0.08,0.05-0.16,0.11-0.24,0.17
	c-0.01,0-0.01,0.01-0.02,0.01c-0.08,0.06-0.16,0.11-0.23,0.18c0,0,0,0,0,0c-0.08,0.06-0.16,0.12-0.24,0.19
	c-0.08,0.06-0.16,0.13-0.24,0.2c-0.08,0.07-0.16,0.13-0.23,0.2c-0.08,0.07-0.15,0.14-0.23,0.21c-0.02,0.01-0.04,0.03-0.05,0.05
	c-0.05,0.05-0.1,0.1-0.15,0.15c-0.07,0.07-0.14,0.14-0.2,0.21c-0.13,0.14-0.27,0.29-0.4,0.43c-0.06,0.07-0.13,0.15-0.19,0.23
	c-0.06,0.08-0.13,0.15-0.19,0.23c-0.06,0.08-0.12,0.16-0.19,0.24c-0.24,0.32-0.48,0.66-0.71,1.02c-0.11,0.18-0.23,0.36-0.34,0.55
	c-0.17,0.28-0.33,0.57-0.48,0.87c-0.1,0.2-0.21,0.4-0.31,0.61c-0.05,0.1-0.1,0.21-0.15,0.32c-0.28,0.6-0.54,1.23-0.78,1.89
	c-0.03,0.07-0.05,0.14-0.08,0.21c0,0.01-0.01,0.02-0.01,0.03c-0.05,0.14-0.1,0.28-0.15,0.42c-0.05,0.15-0.1,0.3-0.15,0.45
	c-0.05,0.15-0.09,0.3-0.16,0.44l-0.04,0c-0.09,0-0.12,0-0.2,0c-0.08-0.01-0.17-0.01-0.24-0.02h0c-0.08-0.01-0.16-0.02-0.24-0.02
	c-0.17-0.02-0.33-0.04-0.49-0.07c-0.06-0.01-0.11-0.02-0.17-0.03c-0.07-0.01-0.14-0.02-0.2-0.04c-0.08-0.02-0.15-0.03-0.23-0.05
	c-0.11-0.02-0.23-0.05-0.33-0.08c-0.06-0.02-0.11-0.03-0.17-0.05c-0.05-0.02-0.11-0.04-0.16-0.06c-0.17-0.06-0.32-0.13-0.45-0.2
	c-0.04-0.02-0.07-0.04-0.1-0.06c-0.04-0.02-0.08-0.05-0.12-0.08c-0.04-0.02-0.08-0.05-0.11-0.08c-0.04-0.03-0.07-0.06-0.1-0.08
	c-0.03-0.03-0.07-0.06-0.1-0.09c-0.15-0.15-0.27-0.32-0.35-0.51c-0.01-0.03-0.03-0.06-0.04-0.09c-0.05-0.14-0.09-0.29-0.11-0.45
	c-0.01-0.08-0.02-0.15-0.02-0.24c-0.03-0.78,0.28-1.78,0.88-3.08c4.5-9.59,12.65-12.35,22.88-10.21c5.01,1.05,8.92,3.78,10.96,8.68
	C361.52,224.41,362.23,226.3,359.86,227.14"/>
<path class="st2" d="M358.76,240.15c-4.08,3.02-8.54,4.76-13.69,4.4c-4-0.23-7.71-1.4-11.04-3.64c-0.94-0.63-2.68-1.27-1.26-2.87
	c1.1-1.25,1.84-3.57,4.39-1.86c4.52,3.03,9.41,3.76,14.54,1.69c1.44-0.58,2.86-1.32,4.13-2.21c1.89-1.31,2.76-0.16,3.79,1.18
	C360.84,238.42,360.03,239.22,358.76,240.15"/>
<path class="st2" d="M412.62,162.09c-8.49,2.04-9.98,3.69-11.82,13.09c-1.84-9.4-3.34-11.05-11.82-13.09
	c8.49-2.04,9.98-3.69,11.82-13.09C402.64,158.4,404.13,160.05,412.62,162.09"/>
<path class="st2" d="M290.8,215.18c3.06,0,3.07-4.76,0-4.76C287.74,210.42,287.74,215.18,290.8,215.18"/>
<path class="st2" d="M313.9,210.22c-0.6-3.26-3.19-6.44-6.95-7.03c-4.94-0.77-9.09,2.24-10.1,7.44c-0.32,1.64-0.39,3.06-0.33,4.07
	c0.03,0.54,0.4,0.92,0.84,0.87c0.48-0.05,0.86-0.59,0.83-1.17c-0.04-0.89,0.04-1.94,0.23-2.95c0.87-4.49,4.36-6.96,8.14-6.23
	c3.75,0.73,6.35,4.3,5.94,8.15c-0.03,0.32-0.03,0.71-0.09,1.04c-0.2,1.05-0.24,2.21-0.59,2.94c-0.25,0.52-0.1,1.15,0.31,1.39
	l-0.39-0.23c0.39,0.23,1.33,0.29,1.57-0.21c0.36-0.75,0.32-2.13,0.62-3.66C314.18,213.31,314.11,211.39,313.9,210.22"/>
<path class="st2" d="M312.47,219.72c-0.29,0-0.58-0.04-0.84-0.13l-0.03,0.05l-0.39-0.23l0.03-0.05c-0.59-0.6-0.76-1.58-0.35-2.44
	c0.17-0.35,0.25-0.98,0.34-1.59c0.05-0.37,0.1-0.74,0.17-1.1c0.03-0.16,0.04-0.35,0.05-0.52c0.01-0.15,0.02-0.3,0.03-0.43
	c0.36-3.31-1.89-6.4-5.11-7.03c-3.33-0.64-6.18,1.58-6.93,5.42c-0.18,0.91-0.25,1.87-0.22,2.7c0.05,1.12-0.73,2.13-1.75,2.24
	c-0.47,0.05-0.93-0.09-1.29-0.4c-0.4-0.34-0.65-0.86-0.69-1.43c-0.07-1.25,0.05-2.79,0.35-4.33c1.11-5.72,5.75-9.12,11.27-8.26
	c3.85,0.6,7.06,3.83,7.8,7.86l0,0c0.23,1.26,0.31,3.32,0.02,4.81c-0.11,0.58-0.17,1.14-0.23,1.68c-0.1,0.87-0.18,1.63-0.46,2.23
	c-0.19,0.41-0.56,0.72-1.04,0.86C312.97,219.69,312.72,219.72,312.47,219.72z M306.51,204.17c0.08,0.01,0.17,0.03,0.25,0.04
	c1.2,0.23,2.3,0.72,3.25,1.41c-0.89-0.7-1.96-1.22-3.22-1.41C306.7,204.2,306.6,204.18,306.51,204.17z"/>
<polygon class="st2" points="244.31,257.42 248.07,251.87 244.32,246.34 242.42,246.34 242.42,245.12 248.36,245.12 248.36,246.34 
	246.69,246.34 249.27,250.11 251.83,246.34 250.12,246.34 250.12,245.12 255.8,245.12 255.8,246.34 253.95,246.34 250.33,251.67 
	254.27,257.42 256.19,257.42 256.19,258.64 250.12,258.64 250.12,257.42 251.83,257.42 249.13,253.44 246.43,257.42 248.22,257.42 
	248.22,258.64 242.33,258.64 242.33,257.42 "/>
<polygon class="st2" points="384.17,258.79 379.21,246.33 377.38,246.33 377.38,245.12 383.21,245.12 383.21,246.33 381.5,246.33 
	385.27,256.26 388.93,246.33 387.21,246.33 387.21,245.12 392.89,245.12 392.89,246.33 391.09,246.33 386.23,258.79 "/>
<path class="st2" d="M325.91,182.62c-0.02-0.01-0.03-0.02-0.04-0.03c0,0,0,0,0,0C325.88,182.6,325.9,182.61,325.91,182.62"/>
<path class="st2" d="M315.99,254.43c-9.32-2.9-11.11-10.66-10.97-19.44c0.11-7.07,0.56-13.93,1.81-20.91
	c0.55-3.1-4.19-4.42-4.74-1.31c-2.82,15.73-6.84,40.35,12.6,46.4C317.71,260.12,319.01,255.37,315.99,254.43"/>
<path class="st2" d="M295.56,201.85C295.56,201.85,295.56,201.85,295.56,201.85c-0.54,0-1.04-0.29-1.3-0.76
	c-1.46-2.56-5.73-9.56-7.89-11.18c-0.95-0.71-2.68-1.46-4.51-2.24c-4.6-1.97-10.32-4.42-11.19-9.38
	c-1.95-11.11,8.84-19.67,13.44-23.32c9.04-7.18,22.11-7.23,28.19-2.79c0.67,0.49,0.82,1.43,0.33,2.1c-0.49,0.67-1.43,0.82-2.1,0.33
	c-4.59-3.35-16.15-3.95-24.55,2.71c-6.52,5.17-13.81,12.17-12.35,20.45c0.59,3.36,5.48,5.46,9.42,7.14
	c2.09,0.89,3.89,1.67,5.13,2.59c2.24,1.68,5.57,6.88,7.41,9.92c1.98-3.13,5.79-8.77,8.9-10.87c4.65-3.13,12.3-3.52,23.44-3.75
	c3.65-0.08,6.07-2.16,7.46-3.9c2.14-2.68,3.26-6.4,2.72-9.06c-0.69-3.4-3.97-7.61-8.9-9.09c-4.8-1.44-17.04,0.36-21.71,2.67
	c-5.92,2.92-13.78,8.38-18.06,14.93c-0.45,0.69-1.38,0.89-2.08,0.44c-0.69-0.45-0.89-1.38-0.44-2.08
	c4.61-7.06,12.96-12.88,19.24-15.98c5.28-2.6,18.3-4.53,23.9-2.85c5.44,1.63,9.95,6.3,10.98,11.37c0.72,3.53-0.62,8.16-3.31,11.54
	c-2.53,3.16-5.99,4.95-9.75,5.03c-8.63,0.18-17.56,0.37-21.82,3.24c-3.1,2.09-7.77,9.41-9.3,12.05
	C296.59,201.56,296.1,201.85,295.56,201.85z"/>
<path class="st2" d="M323.3,185.93c-0.53,0-1.04-0.28-1.31-0.77c-0.4-0.72-0.14-1.64,0.58-2.04c3.47-1.94,5.25-4.39,5.28-7.29
	c0.03-2.79-1.66-5.24-2.57-5.78c-3.99-2.34-10.65,0.65-14.26,2.64c-4.69,2.58-12.76,9.82-12.84,9.89c-0.62,0.55-1.57,0.5-2.12-0.11
	c-0.55-0.62-0.5-1.57,0.11-2.12c0.34-0.31,8.41-7.54,13.4-10.29c5.09-2.8,12.22-5.53,17.22-2.6c1.98,1.16,4.09,4.7,4.05,8.4
	c-0.03,2.79-1.24,6.77-6.82,9.88C323.8,185.87,323.55,185.93,323.3,185.93z"/>
<path class="st2" d="M283.81,160.79c0.15,2.43-1.69,4.52-4.12,4.68s-4.52-1.69-4.68-4.12c-0.15-2.43,1.69-4.52,4.12-4.68
	C281.56,156.52,283.66,158.37,283.81,160.79"/>
<path class="st2" d="M329.97,169.03c0.14,2.2-1.53,4.1-3.73,4.24c-2.2,0.14-4.1-1.53-4.24-3.73c-0.14-2.2,1.53-4.1,3.73-4.24
	C327.93,165.16,329.83,166.83,329.97,169.03"/>
<path class="st2" d="M314.32,153.15c0.12,1.82-1.27,3.39-3.09,3.51c-1.82,0.12-3.39-1.27-3.51-3.09c-0.12-1.82,1.27-3.39,3.09-3.51
	C312.63,149.94,314.2,151.33,314.32,153.15"/>
<path class="st2" d="M328.3,152.18c0.1,1.53-1.06,2.84-2.59,2.94c-1.53,0.1-2.85-1.06-2.94-2.59c-0.1-1.53,1.06-2.85,2.59-2.94
	C326.89,149.5,328.21,150.66,328.3,152.18"/>
<path class="st2" d="M300.22,181.05c0.11,1.69-1.17,3.14-2.86,3.25c-1.69,0.11-3.14-1.17-3.25-2.86s1.17-3.14,2.86-3.25
	C298.65,178.08,300.11,179.36,300.22,181.05"/>
<path class="st2" d="M290.74,177.98c0.11,1.71-1.19,3.19-2.9,3.29c-1.71,0.11-3.18-1.19-3.29-2.9c-0.11-1.71,1.19-3.18,2.9-3.29
	C289.16,174.97,290.63,176.27,290.74,177.98"/>
</svg>
